<svg id="Слой_1" xmlns="http://www.w3.org/2000/svg" viewBox="0 0 63 79"><style>.st0{fill:#835fa8}</style><path class="st0" d="M55 54l-.2.2-9.7 10.4-2.1 2.1-2.5 2.3.1-.1-2-2-2.3-2.4-.1-.1-.5-.6-2.1-2.4-2.2-2.5-1.7-2-10.5-12.2c-1.1-1.2-1.9-2.5-2.3-3.9-.5-1.5-.7-3-.5-4.6.2-3.2 1.6-5.9 4-8 2.4-2 5.3-2.9 8.4-2.7 1.9.1 3.6.6 5.1 1.6 1.1.6 2 1.4 2.9 2.4l9.1 10.4c1.2 1.4 1 3.4-.3 4.6-1.4 1.2-3.5 1-4.7-.3l-9.1-10.4c-.3-.4-.7-.7-1.1-.9-.1 0-.2-.1-.3-.1-.6-.4-1.2-.6-2-.6h-.2c-1.4-.1-2.5.2-3.6 1.1-1.1.9-1.6 2-1.7 3.4v.2c-.1.7 0 1.2.2 1.8v.1c.2.5.5 1 .9 1.5v.1l.1.1 12.6 14.6 1.8 2 2.2 2.5 9.2-9.8c4.4-5.5 6.5-11.4 6.5-18.1 0-7-2.4-12.9-7.4-17.8-4.9-4.8-10.6-7.2-17.6-7.3-6.8.1-12.6 2.5-17.4 7.3-5 4.9-7.4 10.8-7.4 17.8 0 6.7 2.1 12.7 6.5 18.1L34 73.6c1.2 1.4 1.1 3.4-.3 4.6-.6.5-1.4.8-2.2.8-.9 0-1.8-.4-2.5-1.1L10.2 56.4l-.1.1L8 54c-5.3-6.6-8-14.1-8-22.3C0 23 3.1 15.4 9.3 9.3 15.4 3.3 22.8.2 31.4 0c8.6.1 16.1 3.2 22.2 9.2C59.9 15.4 63 23 63 31.7c0 8.2-2.7 15.7-8 22.3z"/></svg>