<svg xmlns="http://www.w3.org/2000/svg" preserveAspectRatio="xMidYMid" width="43" height="31" viewBox="0 0 43 31"><defs><style>.cls-1{fill:#835fa8;fill-rule:evenodd}</style></defs><path d="M39.535 19.244c.248-.949.394-1.94.394-2.969 0-6.42-5.157-11.625-11.518-11.625-1.635 0-3.188.349-4.597.969C22.401 2.315 19.149 0 15.357 0c-5.089 0-9.214 4.164-9.214 9.3 0 .346.064.674.101 1.01A10.848 10.848 0 0 0 0 20.15C0 26.143 4.813 31 10.75 31h26.107C40.25 31 43 28.224 43 24.8c0-2.45-1.42-4.548-3.465-5.556zM36.857 29.45H10.75c-5.08 0-9.214-4.172-9.214-9.3 0-3.604 2.101-6.914 5.353-8.434l1.001-.467-.119-1.108c-.013-.116-.028-.23-.044-.344-.022-.164-.048-.327-.048-.497 0-4.274 3.444-7.75 7.678-7.75 3.064 0 5.83 1.838 7.047 4.683l.612 1.428 1.412-.621a9.832 9.832 0 0 1 3.983-.84c5.504 0 9.982 4.519 9.982 10.075 0 .838-.116 1.704-.343 2.574l-.321 1.23 1.133.558a4.618 4.618 0 0 1 2.602 4.163c0 2.565-2.066 4.65-4.607 4.65zm-14.589-7.362V10.85h-1.536v11.238l-4.223-4.263-.768 1.163L21.5 24.8l5.759-5.812-.768-1.163-4.223 4.263z" class="cls-1"/></svg>