<svg xmlns="http://www.w3.org/2000/svg" preserveAspectRatio="xMidYMid" width="197.096" height="46" viewBox="0 0 197.09575 46" id="svg2"><defs id="defs4"><style id="style6">.cls-1{fill:#3dd2ae;fill-rule:evenodd}</style><style id="style3344">.cls-1{fill:#3dd2ae;fill-rule:evenodd}</style><style id="style3358">.cls-1{fill:#3dd2ae;fill-rule:evenodd}</style><style id="style3372">.cls-1{fill:#3dd2ae;fill-rule:evenodd}</style></defs><path d="M37 0L4 33 0 46l13-4L46 9l-9-9zm6.172 9L13.086 39.086l-6.172-6.172L37 2.828 43.172 9zM3.023 42.978l2.743-8.915.148-.149 6.172 6.172-.149.148-8.914 2.744z" class="cls-1" id="spr1" fill="#3dd2ae" fill-rule="evenodd"/><path id="spr2" class="cls-1" d="M81.729 0v13.068L63.433 31.364H50.365V46h14.637V32.932l18.295-18.296h13.068V0H81.73zM62.91 43.91H52.456V33.454h10.455v10.454zm31.363-31.365H83.82V2.091h10.454v10.454z" fill="#3dd2ae" fill-rule="evenodd"/><path id="spr3" class="cls-1" d="M145.929.786c-1.509-1.481-4.1-.414-4.1-.414-3.773.74-24.705 21.35-24.705 21.35l-2.133 2.094-5.333 7.327-2.134 2.093s-5.335-1.044-7.469 2.095c-2.133 6.28-3.2 8.374-8.533 8.374 18.136 7.327 21.336-5.234 21.336-5.234l2.133-2.093 7.467-5.235 2.135-2.094s21.006-20.535 21.761-24.237c0 0 1.083-2.545-.425-4.026zm-44.272 43.12a18.54 18.54 0 0 1-3.383-.335c1.65-1.617 2.61-4.074 3.699-7.263.85-.99 2.559-1.145 3.538-1.145.913 0 1.598.128 1.604.129a2.162 2.162 0 0 0 1.752-.441l2.348 2.312a2.093 2.093 0 0 0-.428.8c-.062.228-1.703 5.943-9.13 5.943zm42.72-39.882a2.049 2.049 0 0 0-.115.379c-.703 2.216-11.322 13.53-21.175 23.163l-2.012 1.975-7.324 5.132a1.945 1.945 0 0 0-.268.224l-.693.68-2.313-2.276.689-.678c.083-.081.16-.17.227-.264l5.232-7.186 2.009-1.971c9.82-9.67 21.353-20.089 23.657-20.787.138-.028.23-.058.361-.111.138-.054.642-.21 1.13-.21.307 0 .52.059.638.173.318.312.144 1.294-.043 1.757z" fill="#3dd2ae" fill-rule="evenodd"/><path id="spr4" class="cls-1" d="M180.176 0c-9.345 0-16.92 7.575-16.92 16.92 0 4.268 1.593 8.155 4.2 11.133l-16.36 16.361L152.68 46l16.362-16.36c2.976 2.606 6.864 4.2 11.133 4.2 9.344 0 16.92-7.576 16.92-16.92 0-9.345-7.576-16.92-16.92-16.92zm0 31.724c-8.176 0-14.805-6.628-14.805-14.804 0-8.177 6.629-14.805 14.805-14.805s14.805 6.628 14.805 14.805c0 8.176-6.629 14.804-14.805 14.804z" fill="#3dd2ae" fill-rule="evenodd"/></svg>