<svg xmlns="http://www.w3.org/2000/svg" id="svg2" viewBox="0 0 193.20894 46" height="46" width="193.209" preserveAspectRatio="xMidYMid"><defs id="defs4"><style id="style6">.cls-1{fill:#3dd2ae;fill-rule:evenodd}</style><style id="style3344">.cls-1{fill:#3dd2ae;fill-rule:evenodd}</style><style id="style3358">.cls-1{fill:#3dd2ae;fill-rule:evenodd}</style><style id="style3372">.cls-1{fill:#3dd2ae;fill-rule:evenodd}</style></defs><path id="spr1" class="cls-1" d="M37 0L4 33 0 46l13-4L46 9l-9-9zm6.172 9L13.086 39.086l-6.172-6.172L37 2.828 43.172 9zM3.023 42.978l2.743-8.915.148-.149 6.172 6.172-.149.148-8.914 2.744z" fill="#3dd2ae" fill-rule="evenodd"/><path d="M77.364 0v13.068L59.068 31.364H46V46h14.636V32.932l18.296-18.296H92V0H77.364zM58.545 43.91H48.091V33.454h10.454v10.454zM89.91 12.544H79.455V2.091h10.454v10.454z" class="cls-1" id="spr2" fill="#3dd2ae" fill-rule="evenodd"/><path d="M146.407.786c-1.509-1.481-4.1-.414-4.1-.414-3.773.74-24.705 21.35-24.705 21.35l-2.132 2.094-5.333 7.327-2.134 2.093s-5.336-1.044-7.47 2.095C98.4 41.61 97.335 43.705 92 43.705c18.137 7.327 21.336-5.234 21.336-5.234l2.134-2.093 7.467-5.235 2.134-2.094s21.006-20.535 21.762-24.237c0 0 1.082-2.545-.426-4.026zm-44.271 43.12a18.54 18.54 0 0 1-3.383-.335c1.649-1.617 2.61-4.074 3.698-7.263.85-.99 2.56-1.145 3.538-1.145.913 0 1.598.128 1.604.129a2.162 2.162 0 0 0 1.752-.441l2.348 2.312a2.093 2.093 0 0 0-.427.8c-.063.228-1.704 5.943-9.13 5.943zm42.72-39.882a2.052 2.052 0 0 0-.116.379c-.703 2.216-11.322 13.53-21.174 23.163l-2.013 1.975-7.323 5.132a1.945 1.945 0 0 0-.268.224l-.694.68-2.313-2.276.69-.678c.083-.081.159-.17.226-.264l5.232-7.186 2.01-1.971c9.82-9.67 21.352-20.089 23.656-20.787.138-.028.231-.058.362-.111.137-.054.641-.21 1.129-.21.307 0 .521.059.638.173.318.312.144 1.294-.043 1.757z" class="cls-1" id="spr3" fill="#3dd2ae" fill-rule="evenodd"/><path d="M176.29 0c-9.346 0-16.92 7.575-16.92 16.92 0 4.268 1.592 8.155 4.2 11.133l-16.36 16.361L148.795 46l16.36-16.36c2.978 2.606 6.866 4.2 11.134 4.2 9.344 0 16.92-7.576 16.92-16.92 0-9.345-7.576-16.92-16.92-16.92zm0 31.724c-8.177 0-14.806-6.628-14.806-14.804 0-8.177 6.629-14.805 14.805-14.805 8.177 0 14.805 6.628 14.805 14.805 0 8.176-6.628 14.804-14.805 14.804z" class="cls-1" id="spr4" fill="#3dd2ae" fill-rule="evenodd"/></svg>