<svg xmlns="http://www.w3.org/2000/svg" preserveAspectRatio="xMidYMid" width="13" height="13" viewBox="0 0 13 13"><defs><style>.cls-1{fill:#b2b2b2;fill-rule:evenodd}</style></defs><path d="M1.61 9.387a5.497 5.497 0 0 0 1.758 1.172 5.402 5.402 0 0 0 2.136.433 5.353 5.353 0 0 0 3.118-.969l2.679 2.672a.93.93 0 0 0 .704.297c.27 0 .505-.099.703-.297a.963.963 0 0 0 .297-.703.96.96 0 0 0-.289-.703l-2.68-2.679a5.353 5.353 0 0 0 .969-3.118 5.4 5.4 0 0 0-.434-2.136 5.497 5.497 0 0 0-1.172-1.758A5.497 5.497 0 0 0 7.641.426a5.408 5.408 0 0 0-2.137-.434c-.744 0-1.457.145-2.136.434-.68.289-1.266.68-1.758 1.172A5.497 5.497 0 0 0 .438 3.356a5.398 5.398 0 0 0-.433 2.136c0 .745.144 1.457.433 2.137.289.68.68 1.266 1.172 1.758zm3.894-7.394A3.37 3.37 0 0 1 7.977 3.02a3.368 3.368 0 0 1 1.027 2.472 3.37 3.37 0 0 1-1.027 2.473 3.37 3.37 0 0 1-2.473 1.027 3.37 3.37 0 0 1-2.472-1.027 3.37 3.37 0 0 1-1.027-2.473c0-.963.342-1.788 1.027-2.472a3.37 3.37 0 0 1 2.472-1.027z" class="cls-1"/></svg>