<svg baseProfile="basic" id="Слой_1" xmlns="http://www.w3.org/2000/svg" viewBox="0 0 52.3 43.6"><style>.st0{fill:#3dd2ae}</style><path class="st0" d="M51.6.7C50.2-.7 47.7.3 47.7.3c-3.6.7-23.4 20.2-23.4 20.2l-2 2-5.1 6.9-2 2s-5.1-1-7.1 2c-2 6-3 7.9-8.1 7.9 17.2 6.9 20.2-5 20.2-5l2-2 7.1-5 2-2s19.9-19.5 20.6-23c.1.3 1.1-2.2-.3-3.6zm-42 40.9c-1 0-2.1-.1-3.2-.3 1.6-1.5 2.5-3.9 3.5-6.9.8-.9 2.4-1.1 3.4-1.1.9 0 1.5.1 1.5.1h.4c.5 0 .9-.2 1.3-.5l2.2 2.2c-.2.2-.3.5-.4.8-.1.3-1.7 5.7-8.7 5.7zM50.1 3.8c-.1.1-.1.3-.1.4-.7 2.1-10.7 12.8-20.1 22L28 28l-6.9 4.9c-.1.1-.2.1-.3.2l-.7.6-2.1-2.1.7-.6c.1-.1.2-.2.2-.3l5-6.8 1.9-1.9C35 12.8 45.9 3 48.1 2.3c.1 0 .2-.1.3-.1.2-.1.7-.2 1.1-.2.3 0 .5 0 .6.1.3.3.2 1.3 0 1.7z"/></svg>